<svg xmlns="http://www.w3.org/2000/svg" viewBox="0 0 800 500" width="100%" height="100%">
  <defs>
    <linearGradient id="grad" x1="0%" y1="0%" x2="100%" y2="100%">
      <stop offset="0%" style="stop-color:#0F2027;stop-opacity:1" />
      <stop offset="100%" style="stop-color:#203A43;stop-opacity:1" />
    </linearGradient>
    <filter id="shadow" x="-10%" y="-10%" width="120%" height="120%">
      <feDropShadow dx="0" dy="4" stdDeviation="8" flood-opacity="0.3"/>
    </filter>
  </defs>
  
  <rect width="800" height="500" fill="url(#grad)" />
  <path d="M -50 550 Q 200 400 400 500 T 850 -50 L 850 550 Z" fill="#ffffff" fill-opacity="0.05" />
  <path d="M -50 550 Q 100 300 300 450 T 850 150 L 850 550 Z" fill="#ffffff" fill-opacity="0.03" />
  
  <rect x="80" y="80" width="640" height="340" rx="16" fill="#1c1917" fill-opacity="0.4" stroke="#ffffff" stroke-opacity="0.1" stroke-width="2" filter="url(#shadow)" />
  
  <g transform="translate(400, 130) scale(0.6)">
    <path d="M 0,-40 L 12,-12 L 40,-12 L 18,6 L 26,34 L 0,16 L -26,34 L -18,6 L -40,-12 L -12,-12 Z" fill="#FBBF24" />
  </g>
  
  <g filter="url(#shadow)">
    <text x="400" y="160" fill="#ffffff" font-family="'Archivo', 'Segoe UI', sans-serif" font-weight="900" font-size="32" text-anchor="middle">Phương pháp tự đo độ chua</text>
    <text x="400" y="220" fill="#ffffff" font-family="'Archivo', 'Segoe UI', sans-serif" font-weight="900" font-size="32" text-anchor="middle">(pH) đất vườn và giải</text>
    <text x="400" y="280" fill="#ffffff" font-family="'Archivo', 'Segoe UI', sans-serif" font-weight="900" font-size="32" text-anchor="middle">pháp cải tạo hữu cơ</text>
  </g>
  
  <text x="400" y="400" fill="#ffffff" fill-opacity="0.6" font-family="'JetBrains Mono', monospace" font-size="14" letter-spacing="0.2em" text-anchor="middle">AGRISYNTHE JOURNAL</text>
</svg>